<svg xmlns="http://www.w3.org/2000/svg" width="277" height="40" viewBox="0 0 277 40">
    <g fill="none" fill-rule="evenodd">
        <path fill="#055E7C" d="M62.856 40H4.144C1.865 40 0 38.12 0 35.82V4.18C0 1.88 1.865 0 4.144 0h58.712C65.135 0 67 1.88 67 4.18v31.64c0 2.3-1.865 4.18-4.144 4.18"/>
        <path fill="#00BCD4" d="M56.522 18.21c-.422 0-.805.168-1.085.438l-6.244 5.005-1.183-.935-5.09-4.022-.09-.077a3.018 3.018 0 0 0-.213-.162c-.274-.202-.581-.332-.934-.332-.825 0-1.493.682-1.493 1.524 0 .47.208.889.534 1.168l.002.002.043.035 5.797 4.731 1.018.831.004 4.14v.007a1.523 1.523 0 0 0 1.529 1.503c.828 0 1.503-.654 1.527-1.471l.003-.006v-4.17l6.178-4.902.07-.058.18-.15c.038-.032.089-.07.124-.103l.243-.203c.37-.317.637-.735.637-1.246 0-.854-.697-1.546-1.557-1.546M41.878 29.696L34.544 18.77a1.56 1.56 0 0 0-1.265-.644 1.54 1.54 0 0 0-1.547 1.535c0 .342.113.657.303.913l3.472 4.96-6.602-.01c-.389.01-1.002.254-1.446.8L25.135 29.6a1.47 1.47 0 0 0-.39.998c0 .818.669 1.481 1.493 1.481.494 0 .931-.238 1.203-.604l.02-.012 2.095-2.765h8.158l1.686 2.62c.252.454.74.761 1.299.761.818 0 1.481-.658 1.481-1.47 0-.307-.094-.591-.256-.827a.578.578 0 0 0-.046-.087M21.865 18.124H10.457c-.855 0-1.548.688-1.548 1.537 0 .31.092.596.25.837.216.303.519.52.904.648.126.033.258.053.394.053H21.683l.25-.001h.024a1.248 1.248 0 0 1 1.245 1.244c0 .682-.552 1.235-1.236 1.244H10.38c-.919 0-1.472.71-1.472 1.519v5.316c0 .84.686 1.521 1.533 1.521.826 0 1.5-.651 1.53-1.464V26.778h9.896l.043-.002h.003c2.351-.064 4.238-1.976 4.238-4.325 0-2.365-1.913-4.289-4.287-4.327"/>
        <path fill="#FFF" d="M10.737 12.85h1.495l-.746-2.269-.75 2.27zm1.383-3.337l1.937 5.332h-1.16l-.365-1.096h-2.086l-.35 1.096H8.93l1.913-5.332h1.277zM17.976 13.882c.606 0 .892-.203.892-.69 0-.521-.286-.707-.898-.707h-1.3v1.397h1.306zm-.044-2.308c.53 0 .785-.17.785-.58 0-.413-.26-.554-.793-.554H16.67v1.134h1.262zm-2.324-2.06h2.533c1.113 0 1.688.48 1.688 1.347 0 .534-.208.898-.642 1.099.561.223.83.637.83 1.263 0 1.014-.688 1.622-1.957 1.622h-2.452V9.513zM22.917 12.85h1.496l-.747-2.269-.749 2.27zM24.3 9.513l1.937 5.332H25.08l-.367-1.096h-2.086l-.351 1.096H21.11l1.911-5.332H24.3z"/>
        <path fill="#EB2227" d="M26.737 10.696h1.037V8.454h-1.037z"/>
        <g>
            <path fill="#1B5BA6" d="M134.856 40H76.144C73.865 40 72 38.12 72 35.82V4.18C72 1.88 73.865 0 76.144 0h58.712C137.135 0 139 1.88 139 4.18v31.64c0 2.3-1.865 4.18-4.144 4.18"/>
            <g fill="#FFF">
                <path d="M132.134 28.654h-1.439c-.758.001-1.516-.005-2.273.008-.224.004-.322-.08-.363-.307-.125-.683-.277-1.36-.395-2.043-.042-.237-.137-.306-.359-.305-1.685.008-3.37.01-5.056 0-.242-.002-.332.102-.403.317-.232.702-.473 1.4-.73 2.093-.037.103-.173.237-.265.238-1.446.015-2.893.01-4.39.01l.909-2.27c1.848-4.61 3.697-9.219 5.543-13.829.478-1.194 1.012-1.571 2.256-1.572 1.052 0 2.104.005 3.156-.002.212-.001.305.05.354.296.751 3.796 1.518 7.59 2.28 11.384.374 1.868.745 3.737 1.116 5.605.02.103.033.207.059.377zm-5.26-6.251l-1.303-6.538-.089-.009-2.27 6.547h3.662zM77.904 11.468l.08-.416c.002-.01.013-.017.045-.057.107-.005.24-.017.373-.017 2.318 0 4.637 0 6.955.002 1.148.002 1.898.633 2.116 1.82.594 3.242 1.173 6.486 1.76 9.729.021.122.054.242.106.469l.706-1.854c1.249-3.3 2.498-6.598 3.744-9.898.063-.165.125-.273.332-.27 1.39.011 2.782.008 4.173.01.044 0 .089.012.174.024-.131.339-.253.663-.382.984-2.188 5.459-4.378 10.916-6.56 16.377-.092.233-.207.317-.448.314a207.81 207.81 0 0 0-3.97 0c-.259.003-.372-.069-.439-.342-1.127-4.589-2.275-9.172-3.39-13.765-.202-.833-.58-1.46-1.365-1.745-1.203-.438-2.417-.843-3.627-1.26-.116-.04-.237-.066-.383-.105zM117.458 11.458l-.76 3.703c-.988-.45-1.995-.744-3.055-.81-.784-.049-1.564-.04-2.283.352a2.05 2.05 0 0 0-.535.423c-.416.463-.441 1.094.01 1.516.425.396.92.717 1.408 1.028.742.471 1.524.876 2.258 1.36 3.329 2.195 2.325 6.377.325 8.065-1.182.998-2.544 1.52-4.02 1.727-2.149.302-4.258.077-6.311-.666-.106-.038-.207-.089-.33-.142l.79-3.864c.177.084.337.159.495.236 1.421.69 2.912.997 4.478.847.568-.054 1.112-.213 1.577-.58.739-.583.818-1.534.11-2.151-.487-.426-1.072-.732-1.616-1.086-.804-.522-1.667-.963-2.404-1.571-2.519-2.08-1.74-5.295-.247-6.9 1.144-1.23 2.577-1.842 4.157-2.126 1.969-.355 3.893-.132 5.774.549.053.019.1.05.18.09zM104.751 11.008l-3.609 17.643H96.77l3.616-17.643h4.366z"/>
            </g>
        </g>
        <g>
            <path fill="#000" d="M206.856 40h-58.712c-2.279 0-4.144-1.88-4.144-4.18V4.18c0-2.3 1.865-4.18 4.144-4.18h58.712C209.135 0 211 1.88 211 4.18v31.64c0 2.3-1.865 4.18-4.144 4.18"/>
            <path fill="#FF5F00" d="M172.651 29.38h11.728V10.584h-11.728z"/>
            <path fill="#EB001B" d="M173.859 19.983c-.003-3.667 1.713-7.132 4.653-9.397-5.29-4.08-12.948-3.178-17.106 2.012-4.157 5.191-3.239 12.707 2.051 16.786 4.418 3.407 10.637 3.407 15.055 0-2.941-2.265-4.657-5.732-4.653-9.4"/>
            <path fill="#F79E1B" d="M197.942 28.038v-1.111h-.134l-.156.793-.157-.793h-.134v1.11h.097v-.84l.145.722h.1l.146-.722v.84h.093zm-.86 0v-.92h.186v-.191h-.443v.19H197v.92h.082zM198.223 19.983c0 6.602-5.455 11.954-12.182 11.954-2.731 0-5.382-.9-7.53-2.556 5.29-4.08 6.209-11.595 2.052-16.786a12.073 12.073 0 0 0-2.051-2.012c5.289-4.08 12.947-3.18 17.106 2.01a11.815 11.815 0 0 1 2.605 7.387v.003z"/>
        </g>
        <g>
            <path fill="#DC1F2A" d="M216.098 36.204c-.476 2.096.825 3.796 2.906 3.796h15.95c2.08 0 4.153-1.7 4.629-3.796l7.354-32.408C247.413 1.7 246.112 0 244.031 0h-15.95c-2.08 0-4.153 1.7-4.629 3.796l-7.354 32.408z"/>
            <path fill="#1A457F" d="M230.01 36.204c-.475 2.096.825 3.796 2.906 3.796h15.95c2.081 0 4.153-1.7 4.63-3.796l7.353-32.408C261.325 1.7 260.024 0 257.944 0h-15.951c-2.08 0-4.153 1.7-4.629 3.796l-7.354 32.408z"/>
            <path fill="#05798A" d="M246.063 36.204c-.476 2.096.825 3.796 2.906 3.796h15.95c2.08 0 4.153-1.7 4.629-3.796l7.354-32.408C277.378 1.7 276.077 0 273.996 0h-15.95c-2.08 0-4.153 1.7-4.629 3.796l-7.354 32.408z"/>
            <path fill="#FEFEFE" d="M256.405 29.613c.435 0 .838.003 1.24-.006.042 0 .106-.068.12-.117.09-.29.169-.586.25-.88.018-.067.031-.136.05-.225-.371 0-.722-.002-1.072.001-.302.003-.228-.049-.313.237-.096.32-.18.645-.275.99m3.012-6.07c-.429 0-.84-.002-1.25.005-.033 0-.08.056-.095.095-.043.116-.072.237-.105.356l-.32 1.14.11-.03c.412-.11.825-.214 1.235-.331.053-.016.11-.086.128-.142.09-.291.167-.586.248-.88.017-.063.03-.127.049-.213m-.667 2.418c-.435 0-.842-.002-1.248.004-.036 0-.092.047-.102.083-.146.52-.286 1.042-.43 1.572.03 0 .045.005.057 0 .424-.191.856-.356 1.316-.432.031-.005.074-.04.083-.069.108-.376.212-.753.324-1.158m-2.308-2.408l-.341-.026.184-.667c.05-.179.095-.36.154-.536.016-.046.076-.109.117-.11.565-.005 1.13-.002 1.696 0 .014 0 .028.011.057.023l-.056.425c.17-.07.32-.13.47-.19a3.573 3.573 0 0 1 1.415-.266c.58.01 1.161.002 1.742.003.064 0 .128.008.21.014-.014.067-.022.116-.036.164-.091.333-.19.665-.273 1.001-.03.123-.088.167-.2.152-.145-.02-.213.034-.255.185-.528 1.912-1.063 3.823-1.596 5.734-.012.043-.019.088-.03.146l.329.016c-.011.059-.017.107-.03.153-.086.31-.178.616-.256.927-.03.118-.083.17-.2.15-.155-.028-.22.038-.258.196-.078.333-.089.33-.426.33H257.402l.135-.518h-3.45c0-.054-.008-.09.001-.122.093-.338.193-.675.282-1.015.03-.112.102-.122.185-.107.16.028.216-.048.257-.198.53-1.922 1.067-3.843 1.602-5.765l.028-.099M226.535 10.284l-.19.948c-.36 1.766-.724 3.53-1.07 5.298a2 2 0 0 0 .015.768c.1.486.474.772 1.044.818.642.053 1.25-.054 1.761-.5.396-.344.573-.804.675-1.308.396-1.964.797-3.927 1.196-5.89.015-.074.027-.136.129-.135.575.004 1.151.002 1.727.003.02 0 .04.007.067.013 0 .031.005.062 0 .09-.424 2.075-.834 4.152-1.277 6.222-.362 1.698-1.43 2.703-3.077 3.068-.835.186-1.68.203-2.513-.026-.88-.242-1.506-.767-1.71-1.711-.112-.522-.048-1.042.058-1.559.405-1.977.808-3.956 1.208-5.935.025-.124.066-.169.196-.167.53.008 1.06.003 1.59.003h.171zM248.905 26.042h.203c.754.004 1.508.01 2.262.007.074 0 .194-.05.215-.105.082-.224.133-.46.201-.71-.879 0-1.729 0-2.58.003-.034 0-.09.036-.1.066-.07.237-.13.476-.2.74m3.368-2.627c-.04-.006-.06-.011-.08-.011-.824 0-1.649.001-2.473-.003-.095 0-.122.047-.143.122-.076.279-.155.557-.23.836-.01.032-.01.067-.015.114.033-.011.053-.015.07-.023a2.492 2.492 0 0 1 1.179-.261c.452.007.905.004 1.358-.002.051-.001.133-.043.147-.085.07-.22.123-.445.187-.687m-2.523-1.23l-.06.612c.187-.109.347-.205.51-.296.447-.247.92-.369 1.434-.362.855.012 1.711.003 2.567.004.064 0 .128.008.21.013-.018.083-.03.147-.047.21-.366 1.352-.737 2.702-1.095 4.055-.116.436-.408.637-.813.711a2.504 2.504 0 0 1-.44.035c-1.085.003-2.17.005-3.256-.002-.134 0-.178.046-.21.17-.24.915-.489 1.828-.734 2.742-.065.244-.032.29.21.29h.647c-.086.324-.16.613-.243.899-.01.032-.077.068-.117.068-.647-.006-1.293-.014-1.94-.03a.788.788 0 0 1-.278-.074c-.211-.09-.296-.248-.239-.474.179-.696.365-1.39.55-2.085.56-2.11 1.123-4.218 1.679-6.328.034-.13.085-.172.216-.17.428.009.856.003 1.283.004.05 0 .1.004.166.007M255.565 14.773c.041.007.06.012.08.012.601 0 1.202.014 1.803-.005.388-.012.759-.12 1.03-.432.34-.395.456-.87.439-1.384-.01-.29-.149-.514-.413-.617a2.07 2.07 0 0 0-.648-.151c-.55-.022-1.1-.008-1.65-.013-.097 0-.132.04-.15.13-.076.396-.16.79-.24 1.186l-.251 1.274m-2.83 4.849c.078-.398.152-.778.229-1.157l1.241-6.154c.105-.522.21-1.044.312-1.566.019-.094.055-.136.16-.136 1.35.005 2.7-.003 4.05.009.43.003.848.1 1.23.317.537.306.82.793.862 1.401.07.988-.146 1.91-.753 2.703-.613.802-1.423 1.267-2.425 1.32-.741.038-1.486.023-2.229.024-.136 0-.19.038-.218.181-.187.974-.385 1.946-.578 2.92-.02.106-.06.154-.179.152-.52-.008-1.039-.003-1.559-.004-.04 0-.08-.005-.144-.01M262.411 27.938h-1.729c.11-.392.21-.765.324-1.134.01-.033.1-.055.153-.056.54-.004 1.08-.006 1.62.001.118.002.171-.034.2-.15.076-.299.162-.595.251-.917h-1.907c.015-.073.024-.122.037-.17.082-.298.168-.596.246-.896.026-.1.069-.143.178-.143 1.768.003 3.536.002 5.304.003.04 0 .079.008.134.014-.013.06-.02.11-.033.157-.082.3-.169.597-.245.897-.027.105-.075.138-.18.136-.494-.005-.989.001-1.483-.005-.112-.001-.16.034-.189.146-.075.304-.164.605-.253.925h1.758c-.027.105-.048.193-.072.28-.071.258-.15.515-.214.776-.028.112-.076.149-.189.148-.555-.006-1.11.001-1.665-.006-.124-.002-.196.039-.257.144-.094.163-.201.319-.322.509.278 0 .521.005.763-.003.129-.004.19.032.209.173.055.394.13.785.19 1.179.024.16.122.219.262.226.121.006.243.001.377.001-.007.056-.008.09-.016.123-.084.309-.17.617-.252.927-.024.089-.069.123-.162.122-.377-.005-.754.005-1.13-.004-.33-.008-.64-.139-.694-.589-.047-.396-.155-.786-.242-1.206-.3.458-.591.888-.867 1.328-.216.346-.509.517-.914.508-.494-.01-.989-.004-1.483-.004h-.19c.041-.16.076-.298.114-.435.056-.204.118-.407.169-.613.022-.086.065-.12.15-.117.127.003.255-.004.382 0 .23.01.411-.09.537-.273.443-.64.877-1.286 1.314-1.93.008-.012.007-.03.016-.072M267.066 14.065h1.868c.018.612.042 1.217.05 1.824.01.6.002 1.2.002 1.8l.06.006.478-1.135c.328-.78.658-1.561.98-2.345.054-.13.123-.176.262-.173.413.01.826.003 1.238.004.055 0 .109.004.19.008-.03.072-.049.123-.072.172-1.102 2.277-2.201 4.556-3.309 6.83-.395.812-.862 1.577-1.515 2.208a2.753 2.753 0 0 1-1.762.793c-.165.012-.33.02-.522.032l.087-.69c.009-.067.01-.137.03-.2.017-.047.051-.109.092-.125.558-.215.953-.627 1.292-1.104.412-.578.716-1.22.99-1.872.07-.168.007-.397-.007-.596-.034-.46-.076-.92-.113-1.379l-.143-1.766-.133-1.705-.043-.587M263.665 16.482c-.034-.117-.073-.36-.174-.574-.144-.305-.443-.4-.75-.27a1.076 1.076 0 0 0-.3.181c-.54.482-.762 1.113-.778 1.825-.005.242.045.485.186.695.157.234.398.326.665.246.233-.07.414-.22.566-.406.372-.454.551-.983.585-1.697m.219-1.543c.098-.068.2-.127.29-.202.211-.18.445-.266.725-.271.304-.006.607-.054.911-.081.065-.006.13 0 .211 0-.085.401-.164.785-.247 1.168-.282 1.303-.568 2.606-.845 3.91-.028.134-.075.177-.209.172-.483-.02-.968-.022-1.451-.041-.066-.003-.138-.05-.192-.096-.065-.056-.114-.131-.158-.184-.349.104-.682.214-1.02.298-.31.077-.627.086-.939.006-.563-.145-.855-.55-.973-1.101-.153-.712-.02-1.4.2-2.077.146-.444.356-.857.628-1.238.358-.501.867-.715 1.439-.82.497-.09.934.065 1.338.347.097.067.19.137.292.21M245.593 30.3c-.094.349-.178.673-.272.995-.01.033-.072.07-.11.071-.973.003-1.946.01-2.919-.002-.411-.005-.63-.295-.54-.718.103-.48.24-.953.363-1.428.074-.285.152-.568.235-.877h-1.189c.055-.21.101-.394.15-.577.04-.155.085-.31.122-.465.02-.084.06-.115.149-.114.32.005.642.005.963 0 .044-.002.12-.033.129-.066.095-.326.18-.656.273-1.007h-1.125c.01-.058.013-.098.023-.135.077-.296.158-.59.232-.886.024-.094.066-.145.168-.131.045.006.091 0 .137 0h4.512c-.018.088-.03.157-.048.224-.068.255-.143.508-.204.764-.028.118-.07.168-.202.165-.535-.009-1.07.002-1.605-.007-.13-.002-.174.042-.203.163-.07.3-.156.598-.241.916h1.847c-.007.055-.008.094-.017.131-.077.29-.158.579-.23.87-.028.113-.075.159-.197.157-.52-.007-1.039.002-1.558-.007-.13-.002-.173.046-.203.165-.123.48-.255.959-.386 1.438-.07.256.002.36.268.361.459.004.917 0 1.376 0h.302M242.352 17.44c0 .061-.003.124 0 .186.028.492.306.808.78.89.554.095 1.099-.169 1.401-.707a3.16 3.16 0 0 0 .41-1.775c-.028-.439-.286-.767-.688-.843-.515-.098-.977.023-1.32.452-.416.52-.544 1.146-.583 1.796m.744 2.327c-.428.003-.844-.06-1.223-.276-.686-.392-.981-1.022-.985-1.794-.003-.847.21-1.642.678-2.352.869-1.317 2.33-1.66 3.508-1.3.758.233 1.275.91 1.316 1.716.06 1.192-.246 2.262-1.096 3.12-.605.61-1.35.886-2.198.886M248.185 19.619h-1.4c.083-.432.163-.854.246-1.274.271-1.382.545-2.762.812-4.145.023-.118.068-.151.18-.15.397.006.793.002 1.216.002l-.13.711.052.045c.019-.04.03-.087.058-.12.636-.724 1.425-.917 2.328-.672.433.117.756.56.814 1.033.05.417-.05.813-.127 1.213-.209 1.076-.424 2.15-.63 3.227-.023.122-.072.147-.18.146-.357-.006-.714-.002-1.07-.003-.056 0-.11-.006-.188-.01l.144-.752.55-2.835.008-.046c.076-.564-.165-.84-.722-.826-.653.015-1.159.447-1.307 1.157-.215 1.033-.41 2.071-.613 3.107l-.04.192M233.75 14.056l-.145.78c.064-.073.102-.119.142-.163.622-.686 1.382-.91 2.26-.663.54.15.888.608.865 1.178-.02.462-.105.924-.19 1.38-.178.962-.375 1.92-.564 2.88-.011.055-.025.11-.039.172h-1.397l.156-.812c.175-.894.354-1.786.523-2.681.028-.15.027-.31.014-.464-.025-.283-.194-.45-.47-.488-.66-.095-1.239.232-1.465.877-.124.353-.183.731-.258 1.1-.157.782-.306 1.565-.457 2.348-.013.071-.02.128-.115.127-.428-.003-.855-.001-1.308-.001.048-.256.093-.497.14-.737.302-1.544.608-3.088.905-4.633.03-.158.085-.21.245-.204.376.013.752.004 1.158.004"/>
            <path fill="#FEFEFE" d="M252.294 30.42c-.084.31-.159.595-.243.876-.01.034-.07.075-.108.075-.657.004-1.315.01-1.972-.002-.353-.006-.595-.27-.595-.638 0-.508.02-1.017.036-1.525.017-.523.04-1.047.059-1.57.008-.207.007-.207.204-.207h1.397l-.03.679c.17 0 .325.007.48-.003.122-.007.194-.07.228-.207.106-.436.113-.435.562-.435h.902c-.12.352-.199.687-.346.987-.172.353-.512.493-.884.523-.264.021-.53.019-.794.016-.126-.002-.183.027-.178.172.01.311.001.623.002.934 0 .188.058.264.242.295.125.02.253.027.38.03.208.004.416 0 .658 0M240.168 14.056c-.062.302-.116.574-.174.846-.323 1.528-.648 3.057-.969 4.585-.022.108-.06.144-.17.143-.407-.007-.814-.003-1.222-.003-.044 0-.088-.006-.147-.01l.285-1.363c.281-1.336.565-2.672.842-4.01.03-.138.073-.197.226-.193.432.013.864.005 1.33.005M242.115 24.579c.099-.366.188-.705.285-1.04.009-.03.064-.058.101-.065.06-.01.122-.002.183-.003a.547.547 0 0 0 .502-.29c.181-.306.384-.599.585-.892.033-.047.102-.095.154-.095.55-.007 1.1-.004 1.65-.003.019 0 .038.007.08.016l-.36.656h2.17c-.094.353-.176.678-.27.998-.01.034-.095.064-.145.064-.758.004-1.517.005-2.276 0-.127 0-.21.03-.29.141-.255.351-.597.53-1.037.516-.432-.014-.864-.003-1.332-.003M262.144 22.136c.574 0 1.112.002 1.651 0 .107-.001.108.073.116.144.021.18.046.36.059.54.01.14.087.19.209.192.116.003.232.001.364.001-.008.063-.008.102-.018.14-.081.293-.165.585-.245.88-.022.081-.062.117-.15.116-.438-.004-.876.004-1.313-.003-.374-.007-.577-.198-.603-.577-.032-.47-.047-.94-.07-1.433M238.85 13.378l.173-.848c.027-.132.049-.265.087-.394.012-.04.069-.095.106-.096.458-.005.916-.002 1.374 0 .014 0 .028.01.058.02l-.166.816c-.03.142-.054.286-.094.424-.011.04-.069.094-.106.095-.458.006-.916.003-1.374.002-.015 0-.029-.01-.059-.019"/>
        </g>
    </g>
</svg>
